{"title":"Jessey Y Joy Ft. Mario Domm - Llorar (h264/mp4)","uid":8155924,"size":115283666,"categoryP":"video","categoryS":"music_videos","magnet":"?xt=urn:btih:f7044b4f259e69db6471ca2d852a98ab91f75bca&amp;dn=Jessey+Y+Joy+Ft.+Mario+Domm+-+Llorar+%28h264%2Fmp4%29&amp;tr=udp%3A%2F%2Ftracker.openbittorrent.com%3A80&amp;tr=udp%3A%2F%2Fopen.demonii.com%3A1337&amp;tr=udp%3A%2F%2Ftracker.coppersurfer.tk%3A6969&amp;tr=udp%3A%2F%2Fexodus.desync.com%3A6969","seeders":4,"leechers":0,"uploader":"MusicVideos-HQ","files":1,"time":1361167319,"description":"General\n\nFormat                         : MPEG-4\nFormat profile                 : Base Media\nCodec ID                       : isom\nFile size                      : 110 MiB\nDuration                       : 5mn 0s\nOverall bit rate mode          : Variable\nOverall bit rate               : 3 070 Kbps\nEncoded date                   : UTC 2013-02-12 18:44:58\nTagged date                    : UTC 2013-02-12 18:44:58\n\nVideo\nID                             : 1\nFormat                         : AVC\nFormat/Info                    : Advanced Video Codec\nFormat profile                 : &lt;a class=&quot;__cf_email__&quot; href=&quot;/cdn-cgi/l/email-protection&quot; data-cfemail=&quot;6921000e0129255a4759&quot;&gt;[email&amp;#160;protected]&lt;/a&gt;&lt;script cf-hash='f9e31' type=&quot;text/javascript&quot;&gt;\n/* &lt;![CDATA[ */!function(){try{var t=&quot;currentScript&quot;in document?document.currentScript:function(){for(var t=document.getElementsByTagName(&quot;script&quot;),e=t.length;e--;)if(t[e].getAttribute(&quot;cf-hash&quot;))return t[e]}();if(t&amp;&amp;t.previousSibling){var e,r,n,i,c=t.previousSibling,a=c.getAttribute(&quot;data-cfemail&quot;);if(a){for(e=&quot;&quot;,r=parseInt(a.substr(0,2),16),n=2;a.length-n;n+=2)i=parseInt(a.substr(n,2),16)^r,e+=String.fromCharCode(i);e=document.createTextNode(e),c.parentNode.replaceChild(e,c)}}}catch(u){}}();/* ]]&gt; */&lt;/script&gt;\nFormat settings, CABAC         : Yes\nFormat settings, ReFrames      : 2 frames\nCodec ID                       : avc1\nCodec ID/Info                  : Advanced Video Coding\nDuration                       : 5mn 0s\nBit rate                       : 2 879 Kbps\nMaximum bit rate               : 7 135 Kbps\nWidth                          : 720 pixels\nHeight                         : 480 pixels\nDisplay aspect ratio           : 16:9\nOriginal display aspect ratio  : 16:9\nFrame rate mode                : Constant\nFrame rate                     : 23.976 fps\nStandard                       : NTSC\nColor space                    : YUV\nChroma subsampling             : 4:2:0\nBit depth                      : 8 bits\nScan type                      : Progressive\nBits/(Pixel*Frame)             : 0.347\nStream size                    : 103 MiB (94%)\n\nAudio\nID                             : 2\nFormat                         : AAC\nFormat/Info                    : Advanced Audio Codec\nFormat profile                 : LC\nCodec ID                       : 40\nDuration                       : 5mn 0s\nBit rate mode                  : Variable\nBit rate                       : 188 Kbps\nMaximum bit rate               : 223 Kbps\nChannel(s)                     : 2 channels\nChannel positions              : Front: L R\nSampling rate                  : 44.1 KHz\nCompression mode               : Lossy\nStream size                    : 6.72 MiB (6%)","torrent":{"xt":"urn:btih:f7044b4f259e69db6471ca2d852a98ab91f75bca","amp;dn":"Jessey+Y+Joy+Ft.+Mario+Domm+-+Llorar+%28h264%2Fmp4%29","amp;tr":["udp%3A%2F%2Ftracker.openbittorrent.com%3A80","udp%3A%2F%2Fopen.demonii.com%3A1337","udp%3A%2F%2Ftracker.coppersurfer.tk%3A6969","udp%3A%2F%2Fexodus.desync.com%3A6969"],"infoHash":"f7044b4f259e69db6471ca2d852a98ab91f75bca","infoHashBuffer":{"type":"Buffer","data":[247,4,75,79,37,158,105,219,100,113,202,45,133,42,152,171,145,247,91,202]},"announce":[],"urlList":[]}}